<?xml version="1.0" encoding="utf-8"?>
<!-- Generator: Adobe Illustrator 24.1.1, SVG Export Plug-In . SVG Version: 6.00 Build 0)  -->
<svg version="1.1" id="Layer_1" xmlns="http://www.w3.org/2000/svg" xmlns:xlink="http://www.w3.org/1999/xlink" x="0px" y="0px"
	 width="256px" height="256px" viewBox="0 0 256 256" style="enable-background:new 0 0 256 256;" xml:space="preserve">
<style type="text/css">
	.st0{fill:#F8572A;stroke:#F8572A;stroke-width:2;stroke-miterlimit:10;}
</style>
<g transform="translate(1.4065934065934016 1.4065934065934016) scale(2.81 2.81)">
	<path class="st0" d="M34.1,2c1.6,0,3.4,0,5.7,0C47,2.1,50.9,2.3,51.9,2.6c4.6,1.4,8.7,3.9,12.3,7.6c5.1,5.2,7.6,10.9,7.6,16.9
		c0,3.6,0.6,5.9,3.6,7.7c1.8,1,2.7,1.1,6.7,1.3c2.2,0.1,3.8,0.3,4.3,0.4c0.5,0.4,1.1,1.2,1.4,2.3c0.3,1.3,0.2,11.2,0.2,14.4
		c-0.1,12.1-0.2,13.2-0.7,15.1c-1.3,4.7-3.3,8.3-6.6,11.6c-4.5,4.6-9.2,7-15.3,7.8c-1.3,0.2-8.3,0.3-17.6,0.3
		c-13.6,0-24-0.2-25.2-0.4c-5.8-1-11.5-4.7-15.4-9.9c-2-2.7-3-4.6-4-7.7C2.1,66.2,2,63.2,2.1,43.2c0.1-15.8,0.2-18.9,0.6-20.4
		c2.1-8.7,8-15.6,16.1-18.8C22.4,2.5,25,2,34.1,2 M35.5,36c0.6,0,1.2,0,1.9,0c9-0.1,9.7-0.1,11.2-1c2.3-1.5,3.4-3.4,3.4-6
		c0-2.9-1.2-4.9-3.8-6.2c-1.8-0.9-2.3-0.9-11.3-0.9c-9.8,0-11,0-13.3,2.2c-1.6,1.7-2.3,4.2-1.6,6.7c0.7,2.5,2.4,4.3,4.6,4.9
		C27.4,35.9,30.4,36,35.5,36 M37.5,68.4c2.2,0,4.7,0,7.5-0.1l15.6-0.2l0.2,0l0.2,0l3-0.5l0.4-0.1l0.3-0.2c2-1.1,3.2-3,3.5-5.3
		c0.3-2.2-0.5-4.3-2.2-5.9c-2.2-2-2.8-2.1-16.5-2.1l-4.2,0h-0.3c-18.1,0-18.9,0-20.9,1.9c-1.6,1.5-2.6,4.2-2.3,6.3
		c0.3,2.2,2.1,4.6,4.2,5.5C26.5,68.1,27.3,68.4,37.5,68.4 M34.1,0C24.8,0,22,0.5,18,2C9.2,5.5,3,12.9,0.7,22.3
		c-0.4,1.8-0.5,4.6-0.6,20.9c-0.1,20.4,0,23.4,1.3,27.4c1.1,3.3,2.1,5.4,4.3,8.3c4.2,5.5,10.4,9.5,16.7,10.7
		C24,89.8,36.6,90,47.8,90c8.5,0,16.3-0.1,17.9-0.3l0,0c6.5-0.9,11.6-3.5,16.4-8.4c3.5-3.5,5.6-7.4,7.1-12.5
		c0.6-2.1,0.6-3.1,0.7-15.6c0.1-9.4,0-13.8-0.2-14.9c-0.4-1.6-1.4-3.1-2.5-3.7c-0.4-0.2-2.6-0.4-5-0.5c-4-0.2-4.5-0.3-5.8-1
		c-2-1.2-2.6-2.5-2.6-5.9c0-6.6-2.8-12.8-8.2-18.3c-3.9-4-8.2-6.6-13.2-8.1C51.3,0.3,48.6,0.1,39.8,0C37.6,0,35.8,0,34.1,0L34.1,0z
		 M35.5,34c-4.4,0-7.8-0.1-8.3-0.3c-3.3-0.9-4.6-5.7-2.1-8.2c1.6-1.6,2-1.6,11.8-1.6c8.8,0,9.1,0,10.4,0.7c1.9,0.9,2.7,2.3,2.7,4.4
		c0,1.9-0.8,3.3-2.5,4.3c-0.9,0.6-1.5,0.6-10.1,0.7C36.7,34,36.1,34,35.5,34L35.5,34z M37.5,66.4c-7.7,0-10.2-0.2-10.7-0.4
		c-1.4-0.6-2.8-2.4-3-3.9c-0.2-1.5,0.5-3.5,1.6-4.5c1.4-1.3,2-1.3,19.5-1.3c1.6,0,3.1,0,4.4,0c13.6,0,13.6,0.1,15.2,1.6
		c2.4,2.3,1.9,6.3-1,7.9l-3,0.5L45,66.3C42.1,66.4,39.6,66.4,37.5,66.4L37.5,66.4z"/>
</g>
</svg>
