<?xml version="1.0" encoding="utf-8"?>
<!-- Generator: Adobe Illustrator 24.1.1, SVG Export Plug-In . SVG Version: 6.00 Build 0)  -->
<svg version="1.1" id="Layer_1" xmlns="http://www.w3.org/2000/svg" xmlns:xlink="http://www.w3.org/1999/xlink" x="0px" y="0px"
	 width="256px" height="256px" viewBox="0 0 256 256" style="enable-background:new 0 0 256 256;" xml:space="preserve">
<style type="text/css">
	.st0{fill:#F8572A;stroke:#F8572A;stroke-width:2;stroke-miterlimit:10;}
</style>
<g transform="translate(1.4065934065934016 1.4065934065934016) scale(2.81 2.81)">
	<path class="st0" d="M55.2,90c-0.9,0-1.8-0.2-2.7-0.5c-1.7-0.7-3.1-2.1-3.8-3.8c-0.9-2.3-3-2.5-3.8-2.5c-0.8,0-2.8,0.2-3.8,2.5
		c-1.5,3.5-5.6,5.2-9.1,3.8l-9.4-3.9c-3.6-1.5-5.2-5.6-3.8-9.1c1-2.4-0.4-4-0.9-4.5c-0.6-0.6-2.2-1.8-4.5-0.9
		c-3.6,1.5-7.6-0.2-9.1-3.8l-3.9-9.4c-1.5-3.6,0.2-7.6,3.8-9.1l0.1,0c2.2-0.9,2.5-2.9,2.5-3.8c0-0.6-0.2-2.8-2.5-3.8
		c-1.7-0.7-3.1-2.1-3.8-3.8c-0.7-1.7-0.7-3.6,0-5.3l3.9-9.4c1.5-3.6,5.6-5.2,9.1-3.8c2.3,0.9,3.9-0.3,4.5-0.9
		c0.6-0.6,1.8-2.2,0.9-4.5c-0.7-1.7-0.7-3.6,0-5.3c0.7-1.7,2.1-3.1,3.8-3.8l9.4-3.9c3.6-1.5,7.6,0.2,9.1,3.8c0.9,2.3,3,2.5,3.8,2.5
		c0.8,0,2.9-0.2,3.8-2.5c0.7-1.7,2.1-3.1,3.8-3.8c1.7-0.7,3.6-0.7,5.3,0l9.4,3.9c1.7,0.7,3.1,2.1,3.8,3.8c0.7,1.7,0.7,3.6,0,5.3
		c-0.9,2.3,0.3,3.9,0.9,4.5s2.2,1.8,4.5,0.9c1.7-0.7,3.6-0.7,5.3,0c1.7,0.7,3.1,2.1,3.8,3.8l3.9,9.4c0.7,1.7,0.7,3.6,0,5.3
		s-2.1,3.1-3.8,3.8c-2.3,0.9-2.5,3-2.5,3.8c0,0.8,0.2,2.8,2.5,3.8c3.6,1.5,5.2,5.6,3.8,9.1l-3.9,9.4c-0.7,1.7-2.1,3.1-3.8,3.8
		c-1.7,0.7-3.6,0.7-5.3,0c-2.3-0.9-3.9,0.3-4.5,0.9s-1.8,2.2-0.9,4.5c0.7,1.7,0.7,3.6,0,5.3c-0.7,1.7-2.1,3.1-3.8,3.8l-9.4,3.9
		C57.1,89.8,56.2,90,55.2,90z M45,81.1c1,0,4.2,0.3,5.6,3.8c0.5,1.2,1.5,2.2,2.7,2.7c1.2,0.5,2.6,0.5,3.8,0l9.4-3.9
		c1.2-0.5,2.2-1.5,2.7-2.7c0.5-1.2,0.5-2.6,0-3.8c-1.5-3.5,0.6-6,1.3-6.7c0.7-0.7,3.2-2.8,6.7-1.3c1.2,0.5,2.6,0.5,3.8,0
		c1.2-0.5,2.2-1.5,2.7-2.7l3.9-9.4c1.1-2.5-0.2-5.4-2.7-6.5c-3.5-1.5-3.8-4.7-3.8-5.6c0-1,0.3-4.2,3.8-5.6c1.2-0.5,2.2-1.5,2.7-2.7
		c0.5-1.2,0.5-2.6,0-3.8l-3.9-9.4c-0.5-1.2-1.5-2.2-2.7-2.7c-1.2-0.5-2.6-0.5-3.8,0c-3.5,1.5-6-0.6-6.7-1.3
		c-0.7-0.7-2.8-3.2-1.3-6.7c0.5-1.2,0.5-2.6,0-3.8s-1.5-2.2-2.7-2.7l-9.4-3.9c-1.2-0.5-2.6-0.5-3.8,0s-2.2,1.5-2.7,2.7
		C49.2,8.6,46,8.8,45,8.8c-1,0-4.2-0.3-5.6-3.8c-1.1-2.5-4-3.7-6.5-2.7l-9.4,3.9c-1.2,0.5-2.2,1.5-2.7,2.7s-0.5,2.6,0,3.8
		c1.5,3.5-0.6,6-1.3,6.7c-0.7,0.7-3.2,2.8-6.7,1.3c-2.5-1.1-5.4,0.2-6.5,2.7l-3.9,9.4c-0.5,1.2-0.5,2.6,0,3.8s1.5,2.2,2.7,2.7
		C8.6,40.8,8.8,44,8.8,45c0,1-0.3,4.2-3.8,5.6l-0.4-0.9l0.4,0.9c-2.5,1.1-3.7,4-2.7,6.5l3.9,9.4c1.1,2.5,4,3.7,6.5,2.7
		c3.5-1.5,6,0.6,6.7,1.3c0.7,0.7,2.8,3.2,1.3,6.7c-1.1,2.5,0.2,5.4,2.7,6.5l9.4,3.9c2.5,1,5.4-0.2,6.5-2.7
		C40.8,81.4,44,81.1,45,81.1z"/>
	<path class="st0" d="M24.6,40.1c-0.1,0-0.2,0-0.3,0c-0.5-0.2-0.8-0.7-0.7-1.2c2.8-9.5,11.6-16.1,21.4-16.1s18.6,6.6,21.4,16.1
		c0.2,0.5-0.1,1.1-0.7,1.2c-0.5,0.2-1.1-0.2-1.2-0.7C62,30.7,54,24.7,45,24.7s-17,6-19.5,14.6C25.4,39.8,25,40.1,24.6,40.1z"/>
	<path class="st0" d="M65.5,40.1c-0.1,0-0.3,0-0.4-0.1l-5.1-2.4c-0.5-0.2-0.7-0.8-0.5-1.3c0.2-0.5,0.8-0.7,1.3-0.5l4.2,2l2-4.2
		c0.2-0.5,0.8-0.7,1.3-0.5c0.5,0.2,0.7,0.8,0.5,1.3l-2.4,5.1c-0.1,0.2-0.3,0.4-0.6,0.5C65.7,40,65.6,40.1,65.5,40.1z"/>
	<path class="st0" d="M44.8,67.2c-9.8,0-18.6-6.6-21.4-16.1c-0.2-0.5,0.1-1.1,0.7-1.2c0.5-0.2,1.1,0.1,1.2,0.7
		c2.5,8.6,10.5,14.6,19.5,14.6s17-6,19.5-14.6c0.2-0.5,0.7-0.8,1.2-0.7c0.5,0.2,0.8,0.7,0.7,1.2C63.4,60.6,54.6,67.2,44.8,67.2z"/>
	<path class="st0" d="M21.9,57c-0.1,0-0.3,0-0.4-0.1c-0.5-0.2-0.7-0.8-0.5-1.3l2.5-5.2c0.2-0.5,0.8-0.7,1.3-0.5l5.2,2.5
		c0.5,0.2,0.7,0.8,0.5,1.3c-0.2,0.5-0.8,0.7-1.3,0.5l-4.3-2l-2,4.3C22.6,56.8,22.3,57,21.9,57z"/>
</g>
</svg>
