<?xml version="1.0" encoding="utf-8"?>
<!-- Generator: Adobe Illustrator 24.1.1, SVG Export Plug-In . SVG Version: 6.00 Build 0)  -->
<svg version="1.1" id="Layer_1" xmlns="http://www.w3.org/2000/svg" xmlns:xlink="http://www.w3.org/1999/xlink" x="0px" y="0px"
	 width="256px" height="256px" viewBox="0 0 256 256" style="enable-background:new 0 0 256 256;" xml:space="preserve">
<style type="text/css">
	.st0{fill:#F8572A;stroke:#F8572A;stroke-width:2;stroke-miterlimit:10;}
</style>
<g transform="translate(1.4065934065934016 1.4065934065934016) scale(2.81 2.81)">
	<path class="st0" d="M89,44h-5C83.6,27.8,73.4,14,58.7,8.5H76c0.5,3.4,3.4,6,6.9,6c3.9,0,7-3.1,7-7s-3.2-7-7-7
		c-3.5,0-6.5,2.6-6.9,6H52V1c0-0.6-0.4-1-1-1H39c-0.6,0-1,0.4-1,1v5.5H14c-0.5-3.4-3.4-6-6.9-6c-3.9,0-7,3.1-7,7s3.2,7,7,7
		c3.5,0,6.5-2.6,6.9-6h17.3C16.6,14,6.4,27.8,6,44H1c-0.6,0-1,0.4-1,1v12c0,0.6,0.4,1,1,1h12c0.6,0,1-0.4,1-1V45c0-0.6-0.4-1-1-1H8
		C8.5,26.6,20.9,12,38,8.7v4.3c0,0.6,0.4,1,1,1h12c0.6,0,1-0.4,1-1V8.7C69.1,12,81.5,26.6,82,44h-5c-0.6,0-1,0.4-1,1v12
		c0,0.6,0.4,1,1,1h12c0.6,0,1-0.4,1-1V45C90,44.5,89.6,44,89,44z M12,56.1H2V46h10V56.1z M83,2.5c2.8,0,5,2.3,5,5s-2.3,5-5,5
		c-2.8,0-5-2.3-5-5S80.2,2.5,83,2.5z M7,12.5c-2.8,0-5-2.3-5-5s2.3-5,5-5s5,2.3,5,5S9.8,12.5,7,12.5z M50,12.1H40V2h10L50,12.1
		L50,12.1z M88,56.1H78V46h10V56.1z"/>
	<path class="st0" d="M65.3,60L45.9,21.6c0-0.1-0.1-0.2-0.2-0.2C45.5,21.1,45.3,21,45,21s-0.5,0.1-0.7,0.3c-0.1,0.1-0.1,0.1-0.2,0.2
		L24.7,60c-0.2,0.3-0.1,0.7,0.1,1l9.6,14.1V89c0,0.6,0.4,1,1,1h19.5c0.6,0,1-0.4,1-1V75.1L65.3,61C65.5,60.7,65.5,60.3,65.3,60z
		 M36.3,88V75.8h17.5V88H36.3z M54.2,73.8H35.8l-9.1-13.4L44,26.2v25.6c0,0.6,0.4,1,1,1s1-0.4,1-1V26.2l17.3,34.1L54.2,73.8z"/>
</g>
</svg>
