<?xml version="1.0" encoding="utf-8"?>
<!-- Generator: Adobe Illustrator 24.1.1, SVG Export Plug-In . SVG Version: 6.00 Build 0)  -->
<svg version="1.1" id="Layer_1" xmlns="http://www.w3.org/2000/svg" xmlns:xlink="http://www.w3.org/1999/xlink" x="0px" y="0px"
	 width="256px" height="256px" viewBox="0 0 256 256" style="enable-background:new 0 0 256 256;" xml:space="preserve">
<style type="text/css">
	.st0{fill:#F8572A;stroke:#F8572A;stroke-width:2;stroke-miterlimit:10;}
</style>
<g transform="translate(1.4065934065934016 1.4065934065934016) scale(2.81 2.81)">
	<path class="st0" d="M45,46c-0.3,0-0.5-0.1-0.7-0.3c-0.4-0.4-0.4-1,0-1.4L61.6,27c0.4-0.4,1-0.4,1.4,0s0.4,1,0,1.4L45.7,45.7
		C45.5,45.9,45.3,46,45,46z"/>
	<path class="st0" d="M73.7,30.1c0,0-0.1,0-0.1,0l-11.4-1.3c-0.5-0.1-0.8-0.4-0.9-0.9L60,16.4c0-0.3,0.1-0.6,0.3-0.8L74.1,1.7
		c0.3-0.3,0.7-0.4,1-0.2c0.4,0.1,0.6,0.4,0.7,0.8L77,13l10.7,1.2c0.4,0,0.7,0.3,0.8,0.7s0,0.8-0.2,1L74.4,29.8
		C74.2,30,74,30.1,73.7,30.1z M63.2,26.8L73.3,28L85.4,16L76,14.9c-0.5-0.1-0.8-0.4-0.9-0.9L74,4.6l-12,12L63.2,26.8z"/>
	<path class="st0" d="M45,72.9c-15.4,0-27.9-12.5-27.9-27.9S29.6,17.1,45,17.1c1.1,0,2.2,0.1,3.6,0.3c0.5,0.1,0.9,0.6,0.9,1.1
		c-0.1,0.5-0.6,0.9-1.1,0.9c-1.3-0.2-2.3-0.2-3.3-0.2c-14.3,0-25.9,11.6-25.9,25.9S30.7,70.9,45,70.9S70.9,59.3,70.9,45
		c0-1-0.1-2.1-0.2-3.3c-0.1-0.5,0.3-1,0.9-1.1c0.6-0.1,1,0.3,1.1,0.9c0.2,1.3,0.3,2.5,0.3,3.6C72.9,60.4,60.4,72.9,45,72.9z"/>
	<path class="st0" d="M45,55.8c-5.9,0-10.8-4.8-10.8-10.8c0-5.4,3.8-9.8,9.1-10.6c0.5-0.1,1.1,0.3,1.1,0.8s-0.3,1.1-0.8,1.1
		c-4.3,0.7-7.4,4.3-7.4,8.7c0,4.8,3.9,8.8,8.8,8.8c4.3,0,8-3.2,8.7-7.4c0.1-0.5,0.6-0.9,1.1-0.8c0.5,0.1,0.9,0.6,0.8,1.1
		C54.8,51.9,50.4,55.8,45,55.8z"/>
	<path class="st0" d="M45,90C20.2,90,0,69.8,0,45S20.2,0,45,0c3.8,0,7.6,0.5,11.3,1.4c0.5,0.1,0.9,0.7,0.7,1.2
		c-0.1,0.5-0.7,0.9-1.2,0.7C52.3,2.5,48.6,2,45,2C21.3,2,2,21.3,2,45s19.3,43,43,43s43-19.3,43-43c0-3.6-0.5-7.3-1.4-10.8
		c-0.1-0.5,0.2-1.1,0.7-1.2c0.5-0.1,1.1,0.2,1.2,0.7c1,3.7,1.4,7.5,1.4,11.3C90,69.8,69.8,90,45,90z"/>
</g>
</svg>
